<svg width="32" height="32" viewBox="0 0 32 32" fill="none" xmlns="http://www.w3.org/2000/svg">
<rect width="32" height="32" rx="8" fill="#FF6B35"/>
<path d="M16 6C15.4 6 15 6.4 15 7V7.5C12.2 8 10 10.5 10 13.5V20C10 20.6 9.6 21 9 21H8C7.4 21 7 21.4 7 22C7 22.6 7.4 23 8 23H24C24.6 23 25 22.6 25 22C25 21.4 24.6 21 24 21H23C22.4 21 22 20.6 22 20V13.5C22 10.5 19.8 8 17 7.5V7C17 6.4 16.6 6 16 6Z" fill="white"/>
<path d="M14 24C14 25.1 14.9 26 16 26C17.1 26 18 25.1 18 24H14Z" fill="white"/>
<path d="M13 13.5C13 11.6 14.3 10 16 10" stroke="#FF6B35" stroke-width="1.5" stroke-linecap="round" fill="none"/>
</svg>
